<?xml version="1.0" standalone="no"?>
<!DOCTYPE svg PUBLIC "-//W3C//DTD SVG 20010904//EN"
 "http://www.w3.org/TR/2001/REC-SVG-20010904/DTD/svg10.dtd">
<svg version="1.0" xmlns="http://www.w3.org/2000/svg"
 width="15em" height="15em" viewBox="0 0 3475.000000 3475.000000"
 preserveAspectRatio="xMidYMid meet">
<g transform="translate(0.000000,3475.000000) scale(0.100000,-0.100000)"
fill="#2661a9" stroke="none">
<path d="M17295 32929 c-27 -5 -61 -11 -75 -13 -24 -3 -36 -7 -77 -23 -10 -3
-24 -5 -30 -4 -7 1 -13 -2 -13 -7 0 -6 -12 -13 -27 -17 -42 -10 -128 -52 -143
-69 -7 -9 -16 -13 -21 -11 -4 3 -11 -1 -16 -8 -4 -7 -15 -17 -23 -20 -28 -13
-55 -32 -68 -49 -7 -10 -18 -18 -25 -18 -14 0 -247 -230 -247 -244 0 -5 -7
-16 -15 -25 -33 -35 -65 -79 -65 -90 0 -6 -5 -11 -10 -11 -6 0 -15 -10 -20
-22 -15 -34 -33 -62 -47 -71 -7 -4 -13 -15 -13 -23 0 -8 -6 -17 -14 -20 -8 -3
-17 -13 -20 -22 -4 -9 -18 -35 -31 -57 -14 -22 -30 -50 -36 -62 -7 -13 -16
-23 -21 -23 -4 0 -8 -5 -8 -11 0 -6 -16 -30 -35 -53 -19 -24 -35 -48 -35 -54
0 -6 -6 -15 -13 -19 -6 -4 -19 -21 -27 -38 -8 -16 -17 -32 -20 -35 -15 -15
-50 -71 -50 -80 0 -5 -5 -10 -10 -10 -6 0 -15 -11 -20 -25 -5 -14 -14 -25 -20
-25 -5 0 -10 -6 -10 -13 0 -8 -9 -22 -20 -32 -11 -10 -20 -24 -20 -32 0 -7 -7
-16 -15 -19 -8 -4 -15 -11 -15 -17 0 -5 -16 -29 -35 -53 -19 -23 -35 -45 -35
-49 0 -4 -13 -24 -30 -45 -16 -21 -30 -43 -30 -49 0 -6 -9 -16 -20 -23 -11 -7
-20 -16 -20 -21 0 -9 -41 -69 -53 -78 -5 -3 -7 -8 -5 -10 1 -3 -14 -25 -34
-50 -21 -25 -38 -51 -38 -58 0 -6 -7 -14 -15 -17 -8 -4 -15 -12 -15 -18 0 -7
-11 -23 -25 -36 -14 -13 -25 -27 -25 -32 0 -5 -4 -14 -10 -21 -43 -53 -60 -76
-60 -81 0 -4 -11 -17 -25 -30 -14 -13 -25 -28 -25 -33 0 -5 -16 -28 -35 -50
-19 -23 -35 -44 -35 -48 0 -4 -18 -29 -40 -55 -22 -26 -40 -53 -40 -59 0 -6
-4 -11 -9 -11 -8 0 -47 -55 -60 -84 -2 -5 -10 -16 -18 -25 -39 -45 -113 -140
-113 -145 0 -6 -19 -31 -67 -86 -18 -21 -33 -40 -33 -44 0 -3 -7 -14 -15 -23
-50 -57 -115 -142 -115 -151 0 -6 -6 -15 -12 -19 -16 -10 -88 -99 -88 -109 0
-4 -9 -16 -20 -28 -35 -35 -130 -154 -130 -161 0 -4 -22 -33 -50 -65 -27 -32
-50 -61 -50 -64 0 -4 -11 -19 -25 -34 -55 -61 -95 -110 -95 -117 0 -4 -9 -17
-20 -29 -38 -39 -90 -103 -90 -110 0 -4 -13 -19 -30 -33 -16 -13 -30 -30 -30
-35 0 -6 -25 -39 -55 -73 -30 -35 -55 -66 -55 -70 0 -5 -13 -21 -30 -37 -16
-15 -30 -32 -30 -36 0 -4 -16 -23 -35 -42 -19 -19 -35 -38 -35 -43 0 -6 -9
-19 -20 -31 -58 -61 -180 -205 -180 -214 0 -5 -16 -24 -35 -41 -19 -17 -35
-34 -35 -39 0 -4 -16 -23 -35 -42 -19 -19 -35 -39 -35 -45 0 -5 -16 -24 -35
-40 -19 -17 -35 -34 -35 -39 0 -8 -29 -42 -131 -153 -16 -17 -29 -35 -29 -40
0 -5 -18 -27 -40 -48 -22 -21 -40 -43 -40 -47 0 -4 -20 -26 -45 -49 -25 -23
-45 -47 -45 -53 0 -6 -15 -27 -34 -46 -70 -72 -146 -157 -146 -164 0 -3 -20
-26 -44 -51 -24 -24 -42 -45 -40 -47 2 -2 -19 -26 -46 -53 -28 -27 -50 -52
-50 -56 0 -3 -26 -32 -57 -63 -31 -31 -52 -56 -47 -56 5 0 -17 -26 -48 -58
-89 -90 -178 -188 -178 -196 0 -4 -26 -35 -59 -69 -32 -34 -93 -100 -136 -147
-43 -47 -106 -115 -141 -152 -35 -37 -64 -71 -64 -75 0 -7 -107 -121 -257
-273 -46 -47 -83 -89 -83 -94 0 -5 -42 -53 -93 -105 -51 -53 -150 -155 -220
-226 -70 -72 -127 -134 -127 -138 0 -11 -264 -279 -1070 -1085 -880 -880
-1064 -1062 -1076 -1062 -7 0 -110 -98 -364 -347 -52 -51 -99 -93 -105 -93 -5
0 -46 -35 -90 -78 -171 -168 -272 -262 -279 -262 -4 0 -38 -29 -74 -64 -37
-36 -105 -99 -152 -141 -47 -43 -112 -104 -145 -136 -34 -32 -65 -59 -69 -59
-5 0 -59 -47 -121 -105 -62 -58 -116 -105 -120 -105 -5 0 -34 -27 -67 -60 -32
-33 -62 -60 -66 -60 -4 0 -30 -22 -57 -50 -27 -27 -51 -48 -53 -46 -2 3 -23
-15 -46 -40 -23 -24 -46 -44 -51 -44 -4 0 -34 -24 -64 -52 -118 -110 -150
-138 -159 -138 -5 0 -26 -18 -46 -40 -20 -22 -39 -40 -43 -40 -6 0 -76 -61
-150 -130 -17 -17 -35 -30 -39 -30 -4 0 -30 -21 -58 -46 -104 -95 -114 -104
-121 -104 -4 0 -45 -34 -91 -76 -46 -42 -84 -73 -84 -69 0 4 -18 -11 -40 -34
-22 -22 -43 -41 -46 -41 -4 0 -23 -14 -43 -30 -20 -17 -49 -41 -66 -55 -115
-94 -171 -142 -178 -152 -4 -7 -14 -13 -22 -13 -7 0 -25 -13 -38 -30 -14 -16
-29 -30 -33 -30 -6 0 -42 -30 -110 -91 -12 -10 -25 -19 -29 -19 -8 0 -73 -54
-117 -98 -16 -15 -28 -23 -28 -18 0 4 -31 -19 -69 -53 -38 -34 -73 -61 -78
-61 -5 0 -16 -8 -25 -17 -10 -10 -38 -34 -63 -53 -25 -19 -59 -47 -75 -62 -16
-16 -34 -28 -40 -28 -5 0 -15 -9 -22 -20 -7 -11 -18 -20 -25 -20 -7 0 -25 -13
-39 -30 -15 -16 -30 -27 -35 -25 -4 3 -16 -6 -27 -20 -11 -14 -24 -25 -29 -25
-5 0 -20 -11 -33 -25 -13 -14 -28 -25 -33 -25 -5 0 -20 -11 -33 -25 -13 -14
-26 -25 -30 -25 -6 0 -57 -38 -85 -65 -9 -8 -20 -15 -26 -15 -5 0 -18 -9 -28
-20 -10 -11 -22 -20 -28 -20 -5 0 -18 -11 -29 -25 -11 -14 -26 -25 -34 -25 -7
0 -19 -9 -26 -20 -7 -11 -18 -20 -24 -20 -6 0 -19 -9 -29 -20 -10 -11 -23 -20
-29 -20 -6 0 -21 -12 -33 -27 -13 -14 -23 -23 -23 -19 0 7 -36 -20 -92 -69
-10 -8 -21 -15 -24 -15 -4 0 -31 -20 -60 -45 -28 -25 -57 -45 -63 -45 -6 0
-16 -9 -23 -20 -7 -11 -17 -20 -21 -20 -10 0 -81 -52 -85 -62 -2 -5 -9 -8 -16
-8 -7 0 -21 -9 -31 -20 -10 -11 -24 -20 -30 -20 -7 0 -15 -7 -19 -15 -3 -8
-10 -15 -17 -15 -6 0 -30 -16 -53 -35 -24 -19 -48 -35 -54 -35 -6 0 -15 -6
-19 -12 -10 -15 -69 -58 -80 -58 -5 0 -14 -9 -21 -20 -7 -11 -17 -20 -24 -20
-6 0 -32 -17 -57 -37 -25 -21 -48 -37 -51 -37 -3 1 -21 -11 -41 -27 -20 -16
-40 -29 -44 -29 -4 0 -16 -11 -27 -26 -11 -14 -23 -23 -26 -20 -2 3 -22 -8
-42 -24 -21 -17 -41 -30 -45 -30 -5 0 -26 -15 -49 -33 -23 -19 -49 -36 -58
-40 -10 -3 -18 -11 -18 -17 0 -5 -5 -10 -10 -10 -12 0 -73 -41 -78 -52 -2 -5
-8 -8 -14 -8 -6 0 -28 -14 -49 -31 -21 -17 -39 -28 -39 -24 0 4 -18 -7 -39
-24 -21 -17 -43 -31 -49 -31 -5 0 -12 -7 -16 -15 -3 -8 -10 -15 -16 -15 -12 0
-73 -41 -78 -52 -2 -5 -8 -8 -14 -8 -5 0 -24 -11 -42 -25 -18 -14 -36 -25 -40
-25 -6 0 -74 -48 -111 -78 -5 -4 -18 -11 -27 -15 -10 -3 -18 -11 -18 -17 0 -5
-6 -10 -14 -10 -7 0 -19 -7 -26 -15 -7 -8 -16 -12 -21 -9 -5 3 -9 0 -9 -5 0
-6 -5 -11 -11 -11 -13 0 -69 -45 -129 -102 -21 -21 -43 -38 -48 -38 -5 0 -26
-19 -46 -42 -20 -24 -52 -59 -71 -79 -19 -19 -35 -39 -35 -43 0 -4 -16 -27
-35 -50 -19 -24 -35 -46 -35 -50 0 -4 -11 -22 -24 -39 -13 -18 -30 -49 -37
-69 -7 -21 -16 -38 -21 -38 -4 0 -10 -16 -14 -35 -3 -19 -10 -35 -15 -35 -4 0
-11 -16 -15 -35 -3 -19 -10 -38 -15 -40 -4 -3 -6 -12 -2 -20 3 -9 -1 -23 -8
-32 -20 -23 -20 -413 0 -436 7 -9 11 -26 8 -37 -3 -11 -2 -20 3 -20 4 0 11
-16 14 -35 4 -19 11 -35 15 -35 5 0 12 -16 15 -35 4 -19 11 -35 16 -35 6 0 10
-5 10 -12 0 -20 50 -118 60 -118 6 0 10 -6 10 -14 0 -7 7 -19 15 -26 9 -7 13
-15 11 -17 -3 -3 6 -15 20 -28 13 -12 24 -26 24 -30 0 -4 19 -29 43 -54 23
-25 52 -58 64 -73 11 -16 25 -28 30 -28 5 0 31 -22 58 -50 27 -27 55 -50 62
-50 8 0 16 -7 19 -15 3 -8 27 -26 52 -41 26 -15 49 -30 52 -33 3 -3 19 -13 35
-21 17 -8 34 -21 38 -27 4 -7 13 -13 19 -13 5 0 27 -13 48 -30 21 -16 43 -30
48 -30 6 0 15 -6 19 -12 8 -13 21 -22 83 -58 62 -36 75 -45 83 -57 4 -7 13
-13 19 -13 5 0 27 -13 48 -30 21 -17 43 -30 49 -30 7 0 14 -7 17 -15 4 -8 10
-15 16 -15 5 0 24 -11 42 -25 18 -14 36 -25 41 -25 4 0 24 -13 45 -30 21 -16
42 -30 48 -30 6 0 12 -3 14 -7 5 -12 75 -63 86 -63 6 0 12 -7 16 -15 3 -8 11
-15 17 -15 7 0 31 -16 55 -35 23 -19 47 -35 52 -35 6 0 12 -3 14 -7 5 -12 66
-53 77 -53 6 0 15 -9 21 -20 6 -11 16 -20 22 -20 6 0 30 -16 54 -35 23 -19 46
-35 50 -35 4 0 26 -16 50 -35 23 -19 47 -35 53 -35 7 0 14 -7 17 -15 4 -8 12
-15 19 -15 6 0 20 -9 30 -20 10 -11 24 -20 30 -20 7 0 15 -7 19 -15 3 -8 12
-15 19 -15 8 0 22 -9 32 -20 10 -11 22 -20 28 -20 5 0 18 -11 29 -25 11 -14
26 -25 34 -25 8 0 17 -7 20 -15 4 -8 12 -15 19 -15 6 0 20 -9 30 -20 10 -11
23 -20 28 -20 6 0 17 -7 26 -15 29 -28 79 -65 86 -65 4 0 16 -11 27 -25 11
-14 24 -25 30 -25 6 0 32 -18 58 -40 26 -22 51 -40 56 -40 4 0 14 -7 23 -15 9
-8 36 -31 61 -50 25 -19 52 -42 61 -50 9 -8 20 -15 26 -15 5 0 18 -9 28 -20
10 -11 23 -20 29 -20 6 0 17 -9 24 -20 7 -11 17 -20 24 -20 6 0 35 -20 64 -45
28 -25 55 -45 58 -45 3 0 19 -13 34 -30 16 -16 31 -28 34 -25 2 3 15 -6 28
-20 13 -14 27 -25 32 -25 4 0 21 -14 38 -31 16 -18 30 -28 30 -24 0 4 29 -18
65 -50 36 -31 65 -53 65 -49 0 4 11 -5 25 -20 13 -14 28 -26 33 -26 5 0 19
-11 32 -25 13 -14 28 -25 34 -25 6 0 22 -13 36 -30 14 -16 29 -30 33 -30 5 0
37 -25 72 -55 34 -30 66 -55 70 -55 4 0 38 -27 75 -60 37 -33 70 -60 73 -60 5
0 29 -19 97 -78 20 -17 41 -32 45 -32 3 0 21 -16 38 -35 17 -19 35 -35 40 -35
5 0 42 -29 82 -65 40 -36 76 -65 79 -65 3 0 19 -11 34 -24 15 -13 52 -44 82
-70 30 -25 69 -59 87 -76 17 -16 35 -30 40 -30 5 0 24 -16 43 -35 19 -19 38
-35 43 -35 5 0 23 -16 40 -35 17 -19 35 -35 40 -35 5 0 48 -36 96 -80 49 -44
92 -80 96 -80 5 0 25 -16 45 -35 19 -20 64 -60 100 -91 36 -30 81 -70 101 -89
19 -19 40 -35 45 -35 5 0 32 -23 59 -50 27 -28 53 -50 57 -50 4 0 26 -20 49
-45 23 -25 47 -45 53 -45 6 0 33 -23 59 -50 27 -28 52 -50 56 -50 4 0 29 -22
56 -50 27 -27 53 -50 58 -50 5 0 33 -25 62 -55 29 -30 57 -55 62 -55 5 0 33
-25 63 -55 30 -30 58 -55 63 -55 4 0 35 -29 69 -65 34 -36 66 -65 71 -65 5 0
37 -26 71 -58 33 -32 97 -93 142 -135 44 -42 84 -77 89 -77 4 0 42 -33 84 -74
180 -174 278 -266 284 -266 4 0 52 -45 107 -100 55 -55 103 -100 108 -100 4 0
61 -54 127 -120 66 -66 122 -120 126 -120 3 0 77 -72 164 -159 87 -88 161
-159 166 -158 8 2 1509 -1497 1509 -1508 0 -4 127 -137 283 -297 155 -159 287
-298 292 -308 6 -9 47 -55 92 -101 155 -160 263 -275 263 -281 0 -4 36 -43 80
-87 44 -44 80 -84 80 -88 0 -5 32 -40 70 -78 39 -38 70 -73 70 -77 0 -3 29
-35 65 -70 36 -34 65 -67 65 -74 0 -6 29 -39 65 -73 36 -35 65 -65 65 -68 0
-6 72 -87 175 -195 30 -32 51 -58 48 -58 -6 0 71 -85 158 -176 21 -23 39 -45
39 -49 0 -4 43 -53 95 -110 52 -56 95 -106 95 -110 0 -4 38 -49 85 -100 47
-51 85 -96 85 -100 0 -3 16 -23 35 -43 70 -75 128 -142 122 -142 -3 0 14 -19
38 -42 25 -24 45 -47 45 -52 0 -4 32 -43 70 -86 39 -43 70 -82 70 -88 0 -5 16
-24 35 -41 19 -17 35 -34 35 -39 0 -4 16 -23 35 -42 19 -19 35 -38 35 -43 0
-5 18 -25 40 -44 22 -20 40 -41 40 -46 0 -6 27 -41 60 -78 33 -37 60 -71 60
-77 0 -5 15 -23 33 -40 17 -17 46 -50 62 -72 17 -23 40 -52 53 -65 12 -12 22
-26 22 -30 0 -8 54 -72 101 -120 16 -16 29 -34 29 -39 0 -5 23 -35 50 -67 28
-32 50 -62 50 -67 0 -6 13 -22 30 -35 16 -14 30 -30 30 -35 0 -5 11 -19 25
-32 14 -13 25 -27 25 -32 0 -5 11 -19 25 -32 14 -13 25 -28 25 -33 0 -5 11
-20 25 -33 14 -13 25 -28 25 -33 0 -5 11 -18 25 -29 14 -11 25 -24 25 -30 0
-5 20 -34 45 -62 25 -29 45 -57 45 -62 0 -5 14 -20 30 -34 16 -14 30 -30 30
-36 0 -6 9 -19 20 -29 11 -10 20 -22 20 -27 0 -5 11 -19 25 -32 14 -13 25 -27
25 -31 0 -5 22 -34 50 -66 28 -32 50 -62 50 -68 0 -6 9 -16 20 -23 11 -7 20
-18 20 -24 0 -6 9 -19 20 -29 11 -10 20 -24 20 -30 0 -7 11 -21 25 -31 14 -10
25 -23 25 -27 0 -8 15 -28 60 -84 6 -7 10 -17 10 -22 0 -6 9 -16 20 -23 11 -7
20 -18 20 -24 0 -6 9 -19 20 -29 11 -10 20 -22 20 -28 0 -5 23 -37 51 -70 28
-34 54 -68 57 -77 3 -8 17 -29 31 -46 50 -60 57 -70 64 -87 3 -9 11 -17 17
-17 5 0 10 -6 10 -13 0 -8 9 -22 20 -32 11 -10 20 -24 20 -31 0 -7 6 -17 13
-21 15 -10 57 -69 57 -81 0 -6 12 -17 26 -27 14 -9 23 -19 20 -22 -3 -3 8 -23
24 -43 17 -21 30 -43 30 -48 0 -6 6 -15 13 -19 14 -10 51 -61 60 -85 3 -10 11
-18 17 -18 5 0 10 -6 10 -13 0 -8 9 -22 20 -32 11 -10 20 -24 20 -30 0 -7 7
-15 15 -19 8 -3 15 -11 15 -17 0 -7 16 -31 35 -55 19 -23 35 -45 35 -49 0 -4
13 -24 30 -45 16 -21 30 -43 30 -49 0 -7 7 -14 15 -17 8 -4 15 -10 15 -16 0
-5 11 -24 25 -42 14 -18 25 -36 25 -41 0 -4 14 -24 30 -45 16 -21 30 -43 30
-48 0 -6 6 -15 13 -19 16 -11 57 -69 57 -83 0 -6 6 -13 14 -16 8 -3 18 -19 21
-35 4 -16 11 -29 16 -29 5 0 14 -11 19 -25 5 -14 14 -25 20 -25 5 0 10 -5 10
-10 0 -12 41 -73 53 -78 4 -2 7 -8 7 -14 0 -6 16 -30 35 -54 19 -23 35 -47 35
-53 0 -15 270 -291 284 -291 6 0 17 -9 24 -20 7 -11 19 -20 26 -20 8 0 16 -3
18 -7 4 -11 65 -53 77 -53 5 0 11 -6 14 -14 3 -8 19 -17 36 -21 17 -4 31 -10
31 -15 0 -4 20 -13 44 -19 25 -6 47 -15 51 -20 3 -6 27 -13 53 -17 26 -4 50
-11 53 -16 3 -4 35 -11 72 -15 37 -3 67 -10 67 -14 0 -5 43 -9 95 -9 52 0 95
4 95 9 0 4 32 11 71 14 39 3 76 10 82 15 7 5 28 12 48 16 19 3 53 15 74 26 22
11 45 20 52 20 12 0 61 27 73 40 3 3 16 11 30 18 62 32 80 44 80 53 0 5 6 9
13 9 8 0 24 11 37 25 13 14 27 25 32 25 9 0 218 207 218 216 0 3 18 28 40 54
22 26 40 51 40 55 0 4 14 24 30 45 17 21 30 43 30 49 0 7 7 14 15 17 8 4 15
12 15 19 0 7 7 18 15 25 9 7 13 15 10 18 -2 3 5 13 17 23 11 11 18 19 14 19
-4 0 6 18 23 39 17 21 31 42 31 46 0 4 14 24 30 45 17 21 30 43 30 49 0 7 7
14 15 17 8 4 15 12 15 19 0 7 6 18 14 24 8 7 21 26 30 44 25 49 40 71 54 80 6
4 12 13 12 18 0 6 16 30 35 53 19 24 35 46 35 50 0 4 4 12 10 19 36 44 90 117
90 123 0 3 13 23 30 44 16 21 30 42 30 47 0 5 16 28 35 50 19 23 35 46 35 52
0 5 6 14 14 18 8 4 15 12 15 16 0 4 16 27 36 51 19 24 35 46 35 50 0 4 16 27
35 50 19 24 35 47 35 51 0 5 7 15 15 24 30 32 95 121 95 130 0 5 11 18 25 29
14 11 25 24 25 29 0 6 9 18 20 28 11 10 20 24 20 32 0 7 7 16 15 19 8 4 15 12
15 19 0 6 9 20 20 30 11 10 20 23 20 28 0 6 7 17 15 26 28 29 65 79 65 86 0 4
11 16 25 27 14 11 25 24 25 30 0 6 18 32 40 58 22 26 40 51 40 56 0 4 7 14 15
23 39 43 75 90 75 99 0 6 9 16 20 22 11 6 20 16 20 22 0 6 21 35 46 64 25 30
43 54 39 54 -4 0 16 26 44 59 28 32 51 62 51 66 0 4 11 18 25 31 14 13 25 27
25 32 0 5 11 19 25 32 14 13 25 27 25 32 0 5 11 19 25 32 14 13 25 28 25 33 0
5 11 20 25 33 14 13 25 28 25 34 0 6 9 17 20 24 11 7 20 17 20 23 0 6 11 22
25 37 33 36 95 112 120 148 11 16 35 45 53 65 17 20 32 40 32 45 0 5 9 15 20
22 11 7 20 17 20 23 0 6 29 44 65 84 36 40 65 76 65 81 0 5 14 20 30 34 17 14
30 29 30 34 0 9 51 71 101 121 16 17 29 35 29 41 0 6 11 21 25 34 14 13 25 27
25 32 0 5 16 22 35 39 19 17 35 37 35 44 0 7 18 29 40 49 22 20 40 40 40 44 0
4 16 23 35 42 19 19 35 39 35 46 0 6 16 24 35 40 19 15 35 33 35 39 0 6 16 26
35 45 19 19 35 38 35 42 0 5 16 23 35 41 19 17 35 36 35 40 0 5 36 48 80 96
44 49 80 92 80 96 0 4 15 24 34 44 78 82 136 148 136 155 0 5 23 30 50 57 28
27 50 53 50 57 0 4 18 26 40 47 22 21 40 42 40 47 0 4 23 28 50 54 28 26 50
51 50 56 0 6 47 61 105 123 58 62 105 116 105 121 0 5 27 35 60 67 33 31 60
60 60 65 0 4 27 34 60 67 33 33 60 63 60 69 0 5 29 36 65 69 36 33 65 65 65
70 0 5 30 41 68 79 37 38 68 73 70 78 2 5 39 44 83 86 43 43 79 82 79 87 0 6
36 46 79 91 43 45 127 133 185 196 187 201 300 321 460 485 86 89 156 163 156
166 0 4 119 125 264 270 146 145 263 266 260 268 -6 6 588 601 600 601 6 0
129 119 274 265 145 146 266 265 270 265 3 0 78 70 167 156 88 86 208 203 266
260 59 57 110 104 115 104 7 0 125 111 309 291 44 44 85 79 91 79 6 0 46 36
88 80 43 44 81 80 84 80 5 0 68 58 229 211 34 32 65 59 69 59 7 0 55 43 195
176 31 29 59 51 61 48 3 -2 30 22 61 55 31 33 61 61 66 63 10 4 103 84 173
151 28 26 53 47 56 47 5 0 52 42 163 146 21 19 40 34 45 34 7 0 78 62 154 136
20 19 41 34 47 34 6 0 29 20 52 45 23 25 44 45 48 45 7 0 85 67 133 115 20 19
40 35 46 35 6 0 25 16 44 35 19 19 38 35 43 35 5 0 25 18 44 40 20 22 42 40
49 40 6 0 26 16 43 35 17 19 34 35 39 35 4 0 23 16 42 35 19 19 39 35 44 35 6
0 19 9 31 19 63 60 125 113 125 106 0 -4 14 6 30 24 17 17 34 31 38 31 4 0 23
16 42 35 19 19 38 35 43 35 4 0 20 14 34 30 13 16 31 30 38 30 7 0 25 13 38
30 14 16 30 30 35 30 5 0 19 11 32 25 13 14 29 25 36 25 7 0 24 14 37 30 14
17 29 30 33 30 6 0 42 30 110 91 12 10 25 19 29 19 3 0 32 23 64 50 32 28 61
50 66 50 4 0 21 14 37 30 15 17 31 30 34 30 6 0 32 21 107 85 9 8 20 15 23 15
8 0 108 82 112 93 2 4 8 7 14 7 6 0 32 18 58 40 26 22 51 40 55 40 3 0 32 23
64 50 32 28 61 50 65 50 4 0 17 11 30 25 13 14 27 25 31 25 7 0 56 37 86 65 9
8 19 15 23 15 7 0 100 72 149 115 9 8 20 15 23 15 6 0 57 39 85 65 9 8 19 15
24 15 4 0 29 17 54 38 25 20 49 36 53 35 4 -2 16 9 26 22 11 14 24 25 29 25 6
0 18 9 28 20 10 11 24 20 32 20 7 0 16 7 19 15 4 8 12 15 19 15 6 0 20 9 30
20 10 11 24 20 30 20 7 0 15 7 19 15 3 8 10 15 17 15 6 0 30 16 53 35 24 19
46 35 50 35 4 0 27 16 50 35 24 19 47 35 52 35 5 0 15 9 22 20 7 11 17 20 23
20 6 0 28 14 49 30 21 17 41 30 45 30 4 0 26 16 49 35 24 19 48 35 53 35 6 0
13 7 17 15 3 8 10 15 17 15 6 0 30 16 53 35 24 19 46 35 51 35 4 0 24 14 45
30 21 17 43 30 49 30 7 0 14 7 17 15 4 8 12 15 19 15 6 0 20 9 30 20 10 11 24
20 32 20 7 0 16 7 19 15 4 8 11 15 16 15 6 0 28 14 49 31 21 17 39 28 39 24 0
-4 18 7 39 24 21 17 44 31 50 31 7 0 14 7 17 15 4 8 10 15 15 15 12 0 73 42
77 53 2 4 10 7 18 7 8 0 17 6 20 13 3 8 20 20 39 27 19 8 35 17 35 22 0 4 5 8
11 8 6 0 25 11 43 25 18 14 36 25 41 25 4 0 24 14 45 30 21 17 42 30 48 30 6
0 22 13 35 30 14 16 29 30 34 30 12 0 223 213 223 225 0 6 9 16 20 23 11 7 20
19 20 26 0 8 11 23 24 34 14 10 28 31 31 45 4 14 13 28 20 31 7 2 16 18 20 35
4 17 11 31 15 31 5 0 12 16 16 35 3 19 10 35 14 35 4 0 14 24 20 53 7 28 17
57 22 64 5 6 12 43 15 82 3 39 10 71 14 71 12 0 12 197 0 204 -4 3 -11 36 -14
73 -3 37 -13 82 -21 98 -9 17 -16 39 -16 50 0 11 -6 29 -14 40 -7 11 -17 35
-21 53 -3 17 -10 32 -15 32 -4 0 -13 12 -19 28 -22 52 -104 171 -123 180 -5 2
-8 9 -8 15 0 16 -222 237 -237 237 -6 0 -20 11 -31 25 -11 14 -24 25 -30 25
-5 0 -60 34 -122 75 -62 41 -115 75 -117 75 -2 0 -9 5 -16 10 -39 33 -107 80
-116 80 -5 0 -14 6 -18 13 -4 6 -21 19 -38 27 -16 8 -32 17 -35 20 -14 14 -70
50 -79 50 -5 0 -11 7 -15 15 -3 8 -12 15 -19 15 -8 0 -22 9 -32 20 -10 11 -24
20 -30 20 -7 0 -15 7 -19 15 -3 8 -12 15 -20 15 -8 0 -19 6 -23 13 -9 14 -37
32 -70 47 -13 5 -23 14 -23 20 0 6 -4 9 -9 6 -5 -3 -14 1 -21 9 -7 8 -17 15
-22 15 -6 0 -19 11 -30 25 -11 14 -24 25 -29 25 -6 0 -25 11 -43 25 -18 14
-38 25 -44 25 -6 0 -19 11 -30 25 -11 14 -23 25 -26 25 -10 0 -88 52 -130 87
-22 18 -45 33 -52 33 -7 0 -21 10 -31 23 -10 12 -31 29 -48 37 -16 8 -40 25
-52 37 -12 13 -25 23 -28 23 -10 0 -69 44 -78 58 -4 6 -14 12 -21 12 -7 0 -21
9 -31 20 -10 11 -24 20 -30 20 -7 0 -15 7 -19 15 -3 8 -12 15 -19 15 -8 0 -22
9 -32 20 -10 11 -23 20 -29 20 -6 0 -17 9 -24 20 -7 11 -17 20 -23 20 -5 0
-15 4 -22 10 -7 5 -40 32 -74 60 -34 27 -66 50 -71 50 -5 0 -17 9 -27 20 -10
11 -23 20 -29 20 -6 0 -17 9 -24 20 -7 11 -17 20 -23 20 -7 0 -22 11 -35 25
-13 14 -27 25 -32 25 -5 0 -17 9 -27 20 -10 11 -24 20 -31 20 -7 0 -18 9 -24
20 -6 11 -17 20 -24 20 -7 0 -21 9 -31 20 -10 11 -22 20 -28 20 -5 0 -18 11
-29 25 -11 14 -24 25 -30 25 -6 0 -36 22 -68 50 -32 28 -63 50 -69 50 -6 0
-16 9 -23 20 -7 11 -18 20 -24 20 -6 0 -21 11 -34 25 -13 14 -28 25 -34 25 -6
0 -20 11 -30 25 -10 14 -24 25 -31 25 -6 0 -22 11 -35 25 -13 14 -28 25 -33
25 -5 0 -18 11 -29 25 -11 14 -25 25 -32 25 -7 0 -25 14 -40 32 -14 17 -26 28
-26 24 0 -4 -15 5 -34 20 -19 16 -44 37 -57 47 -49 36 -164 132 -167 140 -2 4
-8 7 -14 7 -6 0 -20 9 -32 19 -69 62 -104 91 -111 91 -4 0 -21 14 -37 30 -15
17 -32 30 -36 30 -5 0 -19 11 -32 25 -13 14 -28 25 -33 25 -5 0 -23 14 -40 30
-50 47 -114 100 -121 100 -4 0 -20 16 -37 35 -17 19 -37 35 -44 35 -7 0 -29
18 -48 39 -19 22 -37 37 -39 35 -3 -2 -17 10 -33 26 -16 17 -32 30 -37 30 -4
0 -22 13 -40 29 -88 79 -126 111 -132 111 -4 0 -20 16 -37 35 -17 19 -37 35
-43 35 -7 0 -24 12 -38 28 -33 36 -145 132 -153 132 -4 0 -23 15 -44 34 -91
85 -148 136 -153 136 -4 0 -26 20 -50 45 -25 25 -47 43 -49 40 -3 -2 -25 16
-49 40 -24 25 -47 45 -51 45 -4 0 -29 22 -56 50 -26 27 -52 50 -58 50 -5 0
-30 20 -55 44 -79 78 -167 156 -175 156 -4 0 -31 23 -59 50 -93 92 -314 290
-323 290 -4 0 -39 32 -77 70 -38 39 -73 70 -77 70 -4 0 -35 29 -70 65 -34 36
-67 65 -72 65 -5 0 -45 36 -88 80 -43 44 -82 80 -87 80 -4 0 -45 38 -92 85
-46 46 -85 83 -87 81 -2 -2 -50 43 -107 100 -57 57 -106 101 -108 99 -2 -2
-55 47 -118 110 -63 63 -117 115 -121 115 -3 0 -72 68 -154 150 -82 83 -154
150 -159 150 -21 0 -1646 1624 -1646 1645 0 6 -72 82 -160 170 -88 87 -160
162 -160 165 0 3 -49 55 -110 115 -60 60 -110 114 -110 120 0 6 -43 52 -95
103 -52 51 -95 96 -95 99 0 6 -47 57 -256 276 -41 42 -74 81 -74 85 0 5 -31
39 -70 76 -38 37 -70 72 -70 76 0 4 -29 37 -65 71 -36 35 -65 68 -65 72 0 8
-189 218 -295 329 -25 25 -45 49 -45 54 0 4 -24 33 -52 64 -117 125 -148 160
-148 166 0 7 -62 77 -141 160 -22 22 -39 44 -39 48 0 4 -15 24 -34 44 -18 21
-59 66 -90 102 -31 36 -72 81 -92 102 -19 20 -35 39 -34 43 1 3 -20 30 -47 59
-78 84 -113 125 -113 132 0 3 -31 41 -70 84 -38 43 -70 81 -70 85 0 4 -14 22
-30 39 -17 17 -53 58 -81 91 -28 33 -64 75 -80 92 -16 18 -29 35 -29 39 0 8
-92 117 -107 127 -7 4 -13 13 -13 18 0 10 -95 128 -154 190 -14 15 -23 29 -20
31 2 3 -10 17 -26 33 -17 16 -30 32 -30 37 0 4 -13 21 -30 36 -16 16 -30 34
-30 40 0 5 -13 22 -30 35 -16 14 -30 30 -30 35 0 5 -11 19 -25 32 -14 13 -25
29 -25 36 0 7 -13 24 -30 37 -16 14 -30 29 -30 33 0 6 -20 31 -85 107 -8 9
-15 21 -15 25 0 5 -11 19 -25 32 -14 13 -25 28 -25 33 0 5 -11 18 -25 29 -14
11 -25 24 -25 29 0 6 -25 41 -55 77 -30 37 -62 76 -70 87 -13 18 -66 85 -101
128 -8 9 -14 20 -14 23 0 4 -18 28 -40 54 -22 26 -40 52 -40 58 0 6 -11 19
-25 30 -14 11 -25 23 -25 27 0 7 -37 57 -65 86 -8 9 -15 19 -15 23 0 9 -72
100 -82 104 -5 2 -8 8 -8 14 0 10 -33 55 -65 89 -8 9 -15 21 -15 27 0 6 -6 15
-12 19 -14 9 -58 68 -58 78 0 3 -12 17 -26 30 -15 14 -24 25 -20 25 4 0 -13
24 -38 54 -25 29 -46 57 -46 61 0 4 -15 26 -33 49 -19 23 -36 49 -40 59 -3 9
-11 17 -17 17 -5 0 -10 5 -10 11 0 10 -13 29 -60 86 -6 7 -10 15 -10 18 0 4
-16 26 -35 49 -19 24 -35 48 -35 54 0 6 -10 19 -23 29 -12 10 -31 35 -40 56
-10 20 -22 37 -27 37 -6 0 -10 5 -10 10 0 14 -41 72 -57 83 -7 4 -13 13 -13
19 0 5 -13 27 -28 47 -16 20 -32 44 -35 54 -4 9 -11 17 -17 17 -5 0 -10 5 -10
11 0 10 -13 29 -60 86 -6 7 -10 15 -10 19 0 3 -14 24 -31 45 -17 21 -28 39
-24 39 4 0 -6 17 -22 38 -17 20 -33 45 -36 55 -4 9 -11 17 -17 17 -5 0 -10 5
-10 11 0 6 -13 28 -30 49 -16 21 -30 41 -30 45 0 4 -14 25 -31 46 -17 21 -27
39 -22 39 4 0 4 4 -2 8 -16 11 -55 70 -55 82 0 6 -7 13 -15 16 -8 4 -15 10
-15 15 0 13 -42 72 -57 82 -7 4 -13 15 -13 23 0 8 -57 72 -127 142 -145 144
-187 182 -202 182 -5 0 -14 6 -18 13 -9 14 -34 30 -78 52 -16 9 -37 20 -45 25
-26 16 -134 64 -147 65 -6 0 -15 4 -19 8 -4 4 -18 7 -30 7 -13 0 -25 4 -29 10
-3 5 -12 7 -20 3 -9 -3 -22 0 -29 6 -19 16 -275 23 -341 10z m671 -4044 c150
-68 521 -259 606 -312 21 -13 40 -23 43 -23 10 0 459 -263 565 -331 25 -16
113 -71 195 -124 83 -52 157 -99 165 -105 8 -6 51 -34 95 -63 44 -29 123 -82
175 -118 52 -36 127 -87 165 -114 76 -52 194 -135 210 -148 12 -9 105 -76 135
-97 60 -42 470 -352 545 -412 6 -5 82 -65 170 -135 88 -70 165 -132 171 -138
7 -5 56 -46 110 -90 134 -110 363 -304 459 -390 44 -40 93 -83 109 -96 16 -13
39 -33 50 -44 12 -11 44 -40 71 -65 294 -266 389 -355 584 -545 352 -343 730
-729 1015 -1036 38 -41 117 -124 175 -184 58 -61 178 -187 266 -280 165 -175
274 -290 457 -480 59 -60 115 -120 126 -133 19 -21 75 -81 412 -437 142 -150
269 -285 325 -346 28 -30 122 -131 210 -224 88 -94 182 -195 209 -225 83 -91
147 -162 221 -241 39 -41 104 -112 145 -159 41 -46 100 -111 131 -144 62 -67
365 -409 444 -500 55 -64 52 -61 110 -126 22 -25 63 -72 90 -105 28 -32 82
-96 120 -141 119 -139 146 -172 333 -404 100 -124 186 -230 191 -236 22 -27
228 -294 243 -316 31 -43 177 -243 185 -253 5 -5 38 -53 73 -105 36 -52 69
-99 73 -105 15 -18 181 -276 254 -395 74 -120 126 -212 208 -365 77 -144 195
-386 195 -399 0 -6 25 -65 50 -121 5 -11 23 -57 39 -102 17 -45 39 -100 51
-122 55 -109 90 -256 90 -376 -1 -136 -58 -423 -110 -550 -4 -11 -16 -42 -25
-70 -10 -27 -29 -73 -42 -102 -12 -28 -23 -59 -23 -67 0 -9 -4 -16 -10 -16 -5
0 -10 -6 -10 -13 0 -27 -230 -465 -320 -607 -5 -8 -28 -46 -51 -85 -115 -191
-399 -611 -539 -795 -14 -19 -79 -105 -143 -190 -130 -173 -311 -405 -462
-590 -55 -68 -113 -140 -130 -161 -37 -46 -207 -247 -295 -350 -36 -41 -87
-101 -115 -134 -27 -32 -54 -63 -60 -69 -24 -27 -94 -107 -145 -165 -49 -58
-148 -168 -175 -197 -5 -6 -32 -37 -60 -69 -47 -55 -103 -116 -255 -281 -36
-39 -103 -113 -150 -164 -47 -52 -119 -130 -161 -175 -41 -44 -98 -104 -125
-134 -27 -30 -80 -87 -119 -126 -38 -40 -97 -101 -129 -136 -341 -366 -1564
-1606 -1997 -2023 -590 -570 -954 -914 -1233 -1166 -28 -25 -82 -74 -121 -110
-109 -101 -185 -169 -265 -240 -41 -36 -117 -104 -169 -151 -53 -47 -109 -96
-125 -110 -16 -13 -68 -58 -115 -99 -47 -41 -115 -99 -151 -129 -36 -30 -69
-59 -75 -65 -5 -6 -35 -31 -65 -56 -30 -25 -57 -47 -60 -50 -9 -10 -354 -295
-400 -330 -25 -19 -47 -38 -50 -41 -4 -4 -194 -155 -305 -241 -5 -4 -23 -18
-40 -31 -95 -74 -286 -218 -340 -257 -35 -25 -123 -88 -197 -141 -73 -53 -146
-104 -163 -115 -16 -10 -32 -21 -35 -25 -7 -9 -307 -205 -430 -281 -144 -89
-275 -165 -405 -233 -169 -89 -181 -95 -390 -190 -16 -8 -61 -26 -100 -40 -38
-14 -79 -29 -90 -34 -23 -11 -124 -43 -205 -65 -242 -65 -418 -72 -615 -23
-89 22 -243 75 -255 87 -3 3 -32 16 -65 29 -92 37 -292 143 -473 250 -90 53
-171 101 -180 106 -10 6 -98 64 -196 130 -98 66 -185 125 -194 130 -10 6 -64
44 -120 85 -57 41 -118 84 -135 95 -18 10 -38 25 -46 33 -8 7 -26 21 -40 30
-14 9 -82 59 -150 112 -69 52 -144 109 -167 125 -23 17 -105 79 -181 138 -190
148 -177 139 -373 297 -96 78 -206 167 -245 198 -38 30 -88 72 -111 91 -22 20
-51 45 -65 56 -41 33 -143 119 -155 130 -6 6 -35 31 -64 56 -126 105 -526 454
-561 488 -9 9 -27 25 -40 36 -13 11 -72 63 -130 115 -58 52 -139 124 -179 160
-64 56 -135 119 -176 155 -6 6 -24 22 -40 36 -17 14 -79 70 -140 125 -60 54
-140 126 -178 159 -38 33 -83 74 -100 90 -18 17 -50 45 -71 64 -22 18 -65 57
-95 85 -30 28 -93 85 -140 126 -47 41 -137 122 -200 180 -63 58 -133 121 -155
141 -22 20 -98 89 -170 155 -71 65 -135 124 -141 129 -62 56 -235 215 -299
275 -44 41 -138 129 -209 195 -71 66 -242 228 -380 360 -138 132 -280 267
-316 300 -108 101 -557 545 -906 897 -357 359 -372 375 -574 590 -74 78 -171
181 -215 227 -44 47 -84 90 -90 97 -5 6 -28 31 -50 55 -22 24 -101 112 -175
194 -74 83 -137 152 -140 155 -3 3 -18 21 -34 40 -16 19 -61 71 -100 114 -39
43 -77 88 -85 100 -8 12 -17 23 -21 26 -3 3 -34 39 -68 80 -35 41 -74 86 -86
100 -12 14 -49 59 -81 100 -33 41 -68 84 -78 95 -22 24 -178 224 -296 379
-118 155 -361 500 -361 512 0 3 -5 10 -10 17 -27 31 -186 294 -241 397 -13 25
-26 47 -29 50 -3 3 -18 32 -35 65 -16 33 -43 80 -60 106 -59 91 -120 192 -124
203 -2 6 -25 47 -51 91 -38 64 -153 294 -200 400 -39 88 -49 114 -55 138 -4
15 -11 30 -16 33 -5 3 -9 11 -9 19 0 8 -5 26 -12 42 -15 38 -46 144 -62 218
-8 33 -16 67 -20 75 -13 31 -31 258 -29 350 3 108 21 260 33 275 4 6 11 29 15
52 4 24 10 45 15 48 4 3 11 20 14 39 6 31 15 56 56 151 80 188 223 459 336
639 81 127 267 411 274 416 4 3 9 12 13 20 4 8 27 42 51 75 25 33 57 78 73
100 15 22 66 91 113 154 47 62 92 123 100 135 8 11 60 79 115 150 55 70 109
140 120 155 33 43 175 222 225 281 25 30 82 98 125 150 44 52 87 103 95 114 8
10 59 71 114 135 137 161 145 171 185 216 20 22 61 70 91 105 48 56 112 129
145 166 6 6 39 44 75 84 190 215 468 519 699 765 42 45 105 112 141 150 396
428 1634 1682 2140 2169 91 87 257 249 370 360 219 215 438 427 560 541 42 39
152 142 245 230 94 88 220 205 280 260 60 55 143 132 185 170 42 39 109 99
149 135 41 36 126 112 191 170 64 58 147 132 185 165 39 33 90 78 115 101 64
58 328 285 440 379 52 44 97 82 100 85 3 3 30 25 60 50 30 25 66 55 80 66 43
37 116 98 136 114 11 8 44 35 73 60 30 25 67 54 81 65 15 11 115 90 221 176
184 147 389 307 436 339 11 8 63 47 115 86 240 182 669 479 928 641 130 82
358 213 369 213 6 0 11 4 11 8 0 4 15 15 33 23 17 9 91 46 162 82 72 36 162
80 200 97 39 17 84 37 100 45 24 12 97 15 371 15 l342 0 78 -35z"/>
<path d="M17350 28150 c-8 -5 -55 -29 -105 -53 -99 -49 -172 -88 -253 -136
-29 -17 -55 -31 -58 -31 -2 0 -23 -12 -47 -27 -23 -15 -54 -34 -69 -43 -45
-25 -118 -70 -193 -118 -38 -25 -88 -57 -110 -71 -22 -14 -44 -30 -50 -34 -5
-5 -46 -32 -90 -61 -83 -54 -159 -107 -232 -160 -23 -17 -65 -47 -93 -66 -28
-19 -59 -42 -70 -50 -10 -8 -29 -22 -42 -32 -13 -9 -79 -58 -147 -110 -68 -51
-145 -109 -171 -128 -71 -51 -157 -118 -220 -170 -30 -25 -93 -76 -140 -112
-47 -36 -96 -75 -110 -87 -14 -11 -29 -24 -35 -29 -5 -4 -56 -46 -113 -92 -57
-47 -131 -107 -165 -133 -34 -27 -64 -51 -67 -55 -3 -4 -48 -43 -100 -87 -52
-44 -106 -90 -120 -101 -14 -12 -63 -54 -110 -94 -111 -94 -191 -163 -261
-225 -30 -27 -87 -77 -125 -110 -38 -33 -114 -101 -169 -150 -55 -50 -118
-106 -139 -125 -175 -154 -521 -471 -726 -665 -52 -50 -115 -109 -140 -130
-24 -22 -63 -58 -86 -80 -23 -22 -90 -87 -150 -145 -60 -57 -219 -212 -355
-345 -135 -132 -299 -291 -365 -354 -274 -260 -1467 -1456 -1689 -1692 -38
-41 -123 -130 -190 -199 -188 -196 -311 -325 -435 -460 -63 -69 -149 -161
-190 -205 -41 -45 -113 -123 -160 -175 -47 -52 -114 -126 -150 -165 -57 -61
-151 -166 -207 -231 -86 -100 -132 -152 -153 -174 -14 -14 -47 -53 -74 -86
-28 -32 -68 -79 -90 -104 -149 -167 -516 -610 -516 -623 0 -4 12 -1 28 7 15 8
50 25 77 37 28 12 97 43 153 70 57 27 105 49 107 49 2 0 47 21 102 46 158 73
175 81 228 104 28 13 84 38 125 58 143 67 332 154 390 179 19 9 67 30 105 48
144 67 227 105 231 105 2 0 50 23 108 50 58 28 107 50 109 50 3 0 47 27 98 60
52 33 117 73 144 90 28 17 77 49 110 70 33 21 84 54 114 72 29 18 63 40 76 48
13 8 47 30 76 48 30 18 88 55 129 82 41 27 91 58 110 70 57 34 238 148 325
206 48 31 52 32 100 23 104 -21 203 -41 300 -60 55 -10 132 -25 170 -33 39 -8
122 -24 185 -36 145 -27 257 -49 293 -56 l27 -6 0 523 0 522 63 66 c34 36 130
138 212 226 83 87 168 178 190 201 22 23 105 112 185 197 l145 156 118 0 c90
1 117 -2 117 -12 0 -8 32 -23 78 -36 42 -13 104 -32 137 -42 61 -18 211 -63
340 -100 39 -12 88 -27 110 -34 22 -7 67 -21 100 -30 104 -29 199 -57 220 -66
11 -4 45 -15 75 -23 30 -8 78 -21 105 -29 28 -9 106 -32 175 -52 69 -20 148
-44 175 -52 28 -8 75 -21 105 -29 30 -8 64 -19 75 -24 11 -5 53 -18 93 -29 39
-12 105 -30 145 -42 39 -11 82 -25 93 -31 19 -9 34 -1 110 54 49 35 157 113
239 173 83 59 160 115 171 124 12 9 31 23 43 31 12 8 62 44 111 80 49 36 121
88 160 115 39 28 112 81 163 119 l92 68 1193 -5 1192 -6 135 -98 c74 -54 175
-127 226 -163 50 -36 131 -94 180 -130 48 -36 139 -101 200 -145 62 -44 158
-113 213 -154 102 -75 125 -84 171 -62 11 5 53 19 93 30 73 21 180 52 262 76
25 8 79 23 120 35 41 12 84 25 95 30 11 5 56 18 100 30 44 12 98 28 120 35 38
12 86 27 258 76 39 11 83 24 97 29 21 8 92 28 125 36 14 3 269 80 325 98 25 8
79 24 120 36 41 12 86 25 100 30 14 5 57 18 97 30 39 12 74 28 77 36 4 11 29
14 120 14 l114 0 64 -67 c35 -37 106 -113 158 -168 52 -55 133 -141 180 -191
47 -50 150 -159 230 -243 80 -84 150 -166 155 -182 7 -18 11 -207 10 -534 0
-443 2 -505 15 -505 8 1 35 5 60 10 66 15 180 37 305 61 61 11 139 27 175 34
36 7 115 22 175 34 61 11 152 29 204 40 l94 20 101 -66 c55 -36 133 -85 171
-110 39 -24 115 -73 170 -108 55 -35 123 -78 150 -95 28 -17 80 -50 116 -73
37 -23 98 -61 135 -85 38 -24 132 -83 209 -132 130 -83 214 -128 390 -210 39
-18 111 -51 160 -75 171 -81 280 -133 350 -165 39 -18 111 -52 160 -75 50 -24
126 -60 170 -80 44 -20 132 -62 195 -92 63 -30 144 -69 180 -85 60 -28 133
-63 325 -153 39 -18 115 -54 170 -79 55 -26 122 -58 149 -71 27 -14 52 -23 54
-20 3 2 -15 30 -39 61 -24 31 -60 77 -79 103 -43 57 -272 344 -280 351 -3 3
-35 41 -70 85 -35 44 -67 82 -70 85 -5 5 -139 163 -185 219 -11 13 -54 63 -95
111 -41 47 -97 112 -125 144 -27 33 -54 64 -60 70 -5 6 -44 49 -86 96 -41 47
-89 100 -105 119 -16 19 -78 89 -138 155 -60 67 -143 159 -185 206 -70 78
-104 115 -275 301 -34 36 -106 115 -161 175 -55 60 -147 159 -205 219 -58 61
-157 167 -220 235 -63 69 -164 177 -225 240 -60 64 -171 180 -245 259 -74 79
-148 158 -165 175 -16 18 -103 108 -191 202 -89 93 -187 196 -219 229 -31 33
-76 81 -98 106 -23 26 -132 140 -243 255 -110 115 -225 235 -255 268 -412 447
-1224 1259 -1495 1495 -21 19 -66 60 -99 90 -33 31 -93 85 -134 121 -41 36
-118 103 -171 150 -128 113 -128 112 -335 285 -229 191 -202 170 -330 270 -60
47 -132 104 -160 126 -152 120 -181 143 -345 264 -74 55 -137 102 -140 105 -3
3 -21 16 -40 30 -19 13 -107 76 -194 138 -157 113 -585 401 -741 499 -44 27
-93 58 -110 69 -16 10 -38 23 -47 29 -61 37 -237 144 -267 163 -20 12 -54 32
-76 43 -22 12 -80 45 -130 74 -134 78 -171 98 -391 211 l-202 104 -178 -1
c-99 0 -186 -4 -194 -9z"/>
<path d="M16248 22782 c-26 -20 -88 -66 -138 -102 -51 -36 -132 -94 -181 -130
-49 -36 -111 -81 -139 -100 -28 -19 -58 -41 -68 -48 -9 -7 -48 -36 -87 -64
l-70 -50 60 5 c33 3 150 15 260 27 110 11 263 27 340 35 77 7 147 16 155 18 8
3 51 8 95 11 44 4 127 12 185 19 70 8 265 12 590 11 662 -1 817 -8 1285 -59
66 -7 199 -20 295 -29 96 -9 202 -20 235 -26 165 -26 244 -21 183 11 -13 7
-25 15 -28 18 -3 3 -25 20 -50 36 -25 17 -49 33 -55 38 -5 4 -28 21 -50 38
-58 45 -304 222 -436 313 l-71 50 -237 3 c-130 2 -240 3 -246 4 -5 0 -22 -2
-37 -4 -15 -2 -25 0 -22 4 3 5 -379 9 -858 9 l-863 -1 -47 -37z"/>
<path d="M13122 21728 l3 -923 70 -13 c39 -7 102 -19 140 -26 39 -8 122 -24
185 -36 63 -12 144 -28 180 -35 36 -7 101 -20 145 -28 44 -9 100 -20 125 -26
103 -24 79 -49 335 337 127 191 232 349 235 352 5 5 476 709 493 737 5 9 2 15
-10 19 -10 3 -27 10 -38 14 -11 5 -38 13 -60 19 -38 9 -126 35 -225 65 -25 8
-70 22 -100 31 -30 9 -77 23 -105 31 -27 8 -79 23 -115 34 -36 11 -90 27 -120
36 -30 9 -80 23 -110 30 -30 8 -62 18 -70 23 -9 5 -31 12 -50 15 -19 4 -44 11
-55 16 -19 9 -89 29 -180 51 -22 6 -48 14 -57 19 -9 6 -35 13 -58 16 -22 4
-40 10 -40 14 0 4 -17 10 -37 13 -44 7 -170 44 -194 56 -8 5 -42 14 -74 21
-32 7 -66 16 -74 20 -24 11 -117 40 -130 40 -8 0 -10 -246 -9 -922z"/>
<path d="M21675 22624 c-27 -7 -81 -23 -120 -34 -117 -36 -167 -51 -225 -66
-30 -8 -64 -19 -75 -24 -11 -5 -36 -12 -55 -16 -19 -3 -41 -10 -50 -15 -8 -4
-33 -12 -55 -18 -111 -29 -162 -43 -180 -51 -21 -9 -104 -34 -235 -70 -41 -12
-82 -24 -90 -27 -8 -4 -42 -14 -75 -23 -33 -10 -85 -25 -115 -34 -30 -9 -73
-22 -95 -27 -22 -6 -49 -15 -60 -19 -11 -5 -40 -14 -65 -20 -25 -6 -56 -15
-70 -20 -14 -5 -59 -18 -100 -30 -134 -39 -175 -53 -183 -60 -5 -4 79 -136
185 -294 106 -157 200 -297 208 -310 15 -25 118 -180 151 -228 11 -15 110
-163 220 -328 156 -233 205 -300 218 -295 15 6 71 17 256 50 44 8 98 19 120
24 22 6 103 22 180 37 77 14 174 33 215 41 41 8 92 17 113 20 l37 5 0 924 c0
508 -1 924 -2 923 -2 -1 -25 -7 -53 -15z"/>
<path d="M12755 22454 c-83 -88 -178 -188 -210 -223 -33 -35 -102 -107 -152
-160 l-92 -96 2 -505 2 -505 40 -7 c22 -4 74 -14 115 -22 210 -42 444 -84 448
-81 1 1 1 397 0 880 l-3 878 -150 -159z"/>
<path d="M21940 21726 l0 -888 33 5 c17 3 68 12 112 21 86 18 229 45 363 70
45 8 87 18 92 21 6 4 10 194 10 508 l0 502 -55 60 c-84 92 -107 117 -291 310
-94 99 -192 203 -217 230 l-47 50 0 -889z"/>
<path d="M16767 22204 c-4 -4 -78 -13 -164 -21 -87 -7 -174 -16 -193 -18 -19
-2 -87 -9 -150 -15 -63 -6 -137 -15 -165 -20 -27 -5 -99 -12 -160 -16 -60 -4
-114 -10 -120 -14 -5 -4 -30 -8 -55 -9 -41 -1 -221 -18 -280 -27 -14 -2 -64
-6 -112 -10 -47 -4 -91 -10 -96 -13 -5 -3 -114 -163 -243 -356 -129 -192 -237
-354 -241 -360 -39 -52 -259 -388 -256 -390 2 -2 28 17 58 42 30 25 75 62 99
82 58 47 115 95 121 101 3 3 30 25 60 50 30 25 57 47 60 50 3 3 34 29 70 58
36 29 83 68 105 86 63 53 368 305 390 323 11 9 49 41 84 72 l65 56 95 7 c53 3
204 11 336 17 132 6 272 13 310 16 39 3 162 10 275 15 203 9 274 14 420 28 97
9 338 9 465 0 55 -4 192 -12 305 -18 113 -5 228 -12 255 -15 65 -6 201 -14
465 -26 118 -5 287 -14 375 -19 88 -5 183 -9 210 -10 46 0 55 -5 125 -63 41
-35 199 -166 350 -291 412 -342 536 -445 612 -510 38 -32 71 -56 74 -53 4 4
-78 140 -96 157 -3 3 -145 214 -315 470 -170 256 -314 468 -319 471 -4 4 -49
10 -100 13 -136 10 -195 16 -251 26 -27 5 -93 12 -145 16 -52 4 -106 8 -120
10 -14 2 -90 10 -170 18 -80 8 -152 17 -160 20 -8 2 -78 10 -155 17 -77 6
-153 14 -170 16 -115 15 -260 23 -525 28 -619 12 -1017 15 -1023 9z"/>
<path d="M17080 21719 c-85 -4 -258 -13 -385 -19 -514 -24 -817 -40 -845 -44
-14 -1 -48 -4 -76 -4 -32 -1 -57 -8 -70 -20 -15 -14 -222 -186 -409 -340 -114
-95 -175 -147 -175 -153 0 -8 325 -1 565 12 99 5 268 14 375 19 107 5 231 12
275 15 265 19 754 38 1025 38 265 1 761 -18 1035 -38 39 -3 156 -10 260 -16
105 -5 249 -13 320 -18 72 -5 234 -12 360 -15 127 -4 273 -9 325 -12 83 -4 93
-3 77 9 -26 22 -223 186 -276 232 -26 22 -66 56 -90 75 -71 57 -174 143 -205
172 -32 28 -48 31 -321 43 -60 2 -119 6 -130 9 -11 2 -126 7 -255 11 -129 4
-248 9 -265 12 -31 5 -558 28 -815 37 -80 2 -215 0 -300 -5z"/>
<path d="M17527 21014 c-1 -1 -164 -4 -362 -8 -198 -4 -448 -12 -555 -18 -293
-15 -348 -18 -555 -28 -104 -4 -200 -11 -212 -14 -12 -2 -150 -7 -305 -11
-156 -3 -305 -8 -333 -11 -27 -3 -116 -5 -198 -4 -141 1 -169 -4 -199 -33 -7
-6 -65 -55 -128 -107 -63 -52 -117 -97 -120 -100 -3 -3 -39 -33 -80 -67 -41
-34 -118 -98 -170 -142 -106 -90 -118 -94 -221 -67 -31 8 -80 18 -110 21 -30
4 -61 9 -69 12 -18 7 -176 38 -275 53 -38 6 -79 16 -90 20 -11 5 -49 14 -85
19 -36 5 -112 19 -170 31 -103 21 -173 34 -340 64 -46 9 -91 18 -100 21 -15 6
-98 23 -250 50 -83 15 -150 28 -255 50 -38 8 -97 19 -130 25 -33 6 -94 18
-135 26 -41 8 -106 21 -145 29 -38 7 -81 16 -95 19 -14 3 -63 13 -110 21 -47
9 -119 22 -160 31 -106 21 -274 53 -350 65 -36 6 -75 15 -87 21 -17 8 -25 7
-38 -6 -9 -9 -20 -16 -25 -16 -5 0 -28 -13 -52 -28 -24 -16 -72 -47 -108 -70
-36 -22 -69 -45 -75 -50 -5 -4 -34 -21 -62 -38 -29 -16 -53 -32 -53 -36 0 -5
-4 -8 -10 -8 -8 0 -128 -75 -425 -265 -27 -17 -110 -69 -182 -115 l-133 -84 0
-710 c0 -391 4 -716 8 -722 7 -11 281 -295 653 -678 102 -105 221 -228 264
-273 l78 -83 98 0 c55 0 100 -3 100 -7 4 -26 3 -1206 -1 -1212 -3 -5 -26 -10
-52 -13 -40 -5 -61 -16 -130 -72 -106 -86 -90 -73 -253 -201 -77 -60 -142
-112 -145 -115 -3 -3 -23 -19 -45 -36 -22 -16 -49 -36 -60 -46 -39 -32 -230
-183 -265 -209 -19 -15 -45 -37 -57 -48 l-23 -22 0 -1194 c0 -1120 1 -1196 18
-1223 9 -16 40 -57 67 -91 51 -64 149 -188 163 -206 4 -5 47 -60 95 -121 l87
-111 0 -270 0 -270 148 -144 c82 -79 227 -218 323 -309 96 -91 224 -212 284
-270 133 -127 217 -205 310 -290 39 -35 129 -118 200 -185 139 -130 161 -151
221 -204 33 -29 231 -212 284 -261 13 -12 86 -77 174 -155 7 -5 41 -37 76 -70
36 -33 103 -94 149 -135 87 -77 172 -154 272 -244 30 -28 84 -76 120 -106 35
-30 89 -77 119 -105 65 -60 60 -55 146 -130 38 -33 116 -103 174 -156 58 -52
120 -108 139 -125 40 -34 228 -201 286 -253 39 -36 188 -166 396 -347 57 -50
176 -151 264 -224 88 -73 176 -147 195 -164 20 -17 53 -46 75 -63 523 -424
963 -761 1310 -1004 196 -138 634 -419 653 -419 6 0 12 -3 14 -7 3 -8 32 -24
188 -103 101 -52 185 -90 195 -90 4 0 21 -6 38 -14 70 -31 147 -49 189 -43 81
11 278 64 292 78 6 5 16 9 24 9 7 0 38 11 68 25 30 14 56 25 59 25 4 0 136 61
203 93 66 33 188 99 247 134 28 16 57 32 65 36 25 13 168 100 270 165 201 129
651 442 688 479 8 7 23 18 35 24 12 7 47 31 77 55 30 24 138 107 240 186 102
78 187 145 190 148 3 3 39 33 80 65 41 33 91 73 111 90 20 16 55 46 80 65 36
29 100 82 244 202 11 9 90 76 175 149 85 72 179 152 209 178 30 25 104 91 165
145 94 84 219 195 260 231 6 6 54 49 106 96 52 47 113 101 134 120 48 42 33
28 206 189 80 74 167 155 194 180 27 25 86 79 130 121 45 42 97 91 116 109 42
39 345 329 560 534 85 82 468 463 852 847 l696 698 0 318 c0 175 1 327 1 338
1 21 7 30 90 132 24 30 108 138 187 240 l144 185 0 1208 0 1209 -72 58 c-40
31 -79 62 -85 68 -7 5 -32 25 -55 43 -24 17 -72 56 -108 85 -36 28 -117 92
-180 142 -63 49 -120 94 -126 100 -7 5 -46 37 -89 70 -42 33 -109 86 -148 118
-62 49 -77 57 -114 57 -41 0 -43 1 -44 30 0 17 0 289 0 605 0 316 0 580 0 585
1 6 41 10 100 10 l98 0 43 48 c24 26 125 130 224 232 338 347 673 695 702 729
l29 35 0 712 1 711 -79 49 c-108 68 -178 112 -277 176 -47 30 -164 104 -260
165 -96 61 -218 138 -270 171 -52 33 -129 82 -170 107 l-75 47 -65 -11 c-155
-25 -276 -47 -285 -53 -5 -3 -35 -9 -65 -13 -30 -3 -68 -10 -85 -15 -16 -5
-59 -14 -95 -20 -36 -5 -76 -12 -90 -16 -14 -3 -59 -12 -100 -20 -41 -9 -106
-22 -145 -29 -38 -8 -106 -21 -150 -29 -44 -8 -93 -17 -110 -21 -39 -8 -162
-33 -250 -50 -38 -8 -104 -21 -145 -29 -41 -9 -88 -19 -105 -22 -55 -11 -189
-35 -260 -46 -38 -6 -72 -14 -75 -17 -3 -3 -16 -7 -30 -9 -34 -4 -130 -21
-160 -28 -14 -3 -56 -12 -95 -19 -113 -21 -137 -26 -185 -36 -44 -9 -203 -39
-330 -62 -36 -7 -69 -15 -75 -18 -5 -4 -53 -12 -106 -19 l-96 -12 -79 62 c-44
35 -81 66 -84 69 -5 6 -112 95 -258 214 -35 29 -73 61 -85 72 -12 11 -45 39
-72 61 l-50 41 -140 7 c-77 4 -216 9 -310 12 -596 19 -726 26 -780 37 -11 3
-115 8 -230 12 -116 4 -221 9 -235 12 -14 3 -146 9 -295 14 -148 5 -323 13
-388 17 -65 4 -119 6 -120 6z m78 -718 c187 -9 432 -20 545 -25 113 -6 270
-13 350 -16 80 -3 183 -10 230 -15 47 -5 144 -12 215 -15 72 -3 168 -10 215
-15 47 -6 173 -17 280 -26 259 -20 623 -57 730 -74 36 -5 119 -17 185 -25 66
-9 163 -22 215 -30 276 -41 372 -56 445 -70 44 -8 107 -20 140 -25 33 -6 105
-20 160 -31 55 -12 114 -23 130 -26 115 -18 627 -138 729 -171 28 -9 82 -36
120 -62 39 -25 89 -57 111 -70 22 -14 45 -28 50 -33 6 -4 39 -27 75 -49 128
-82 167 -106 280 -180 63 -40 150 -96 193 -123 43 -28 128 -82 190 -122 62
-39 142 -90 180 -113 63 -38 67 -43 68 -78 4 -143 3 -1214 -1 -1236 l-5 -27
-52 38 c-29 21 -109 79 -178 128 -68 50 -174 126 -234 170 -60 44 -119 87
-131 95 -28 19 -225 161 -360 260 -58 42 -133 96 -168 121 -35 24 -93 67 -130
94 -188 141 -268 193 -307 199 -128 20 -254 38 -355 51 -63 8 -131 17 -150 21
-54 9 -232 33 -365 49 -66 8 -133 17 -150 20 -16 4 -84 13 -150 21 -66 8 -169
21 -230 29 -188 24 -455 56 -580 69 -66 7 -127 15 -135 18 -8 4 -82 11 -165
18 -82 6 -177 15 -210 21 -58 9 -102 13 -460 43 -93 8 -181 17 -195 20 -14 3
-108 10 -210 16 -241 14 -281 17 -304 26 -15 6 -17 4 -11 -7 7 -11 6 -12 -6
-2 -9 7 -95 13 -244 17 -126 4 -268 9 -315 11 -47 2 -119 5 -160 6 -137 2
-688 -22 -805 -35 -27 -3 -147 -10 -265 -16 -118 -6 -228 -13 -245 -17 -16 -3
-115 -12 -220 -19 -104 -7 -215 -16 -245 -19 -30 -3 -111 -10 -180 -15 -69 -5
-138 -11 -155 -13 -16 -2 -73 -7 -125 -11 -52 -4 -140 -12 -195 -17 -55 -6
-163 -16 -240 -24 -77 -7 -160 -16 -185 -20 -53 -7 -282 -31 -430 -45 -58 -6
-115 -15 -128 -20 -13 -6 -40 -10 -60 -10 -20 0 -82 -7 -137 -16 -55 -8 -140
-21 -190 -29 -169 -26 -352 -64 -438 -92 -40 -13 -328 -190 -382 -236 -5 -4
-264 -176 -575 -382 -311 -205 -590 -392 -621 -414 -31 -23 -62 -41 -68 -41
-8 0 -11 189 -11 688 0 676 0 688 20 705 11 9 23 17 26 17 2 0 17 9 32 19 41
29 175 115 192 124 8 4 41 24 73 45 74 48 293 188 360 229 29 18 59 37 67 43
38 26 122 80 125 80 2 0 36 22 77 48 170 112 255 161 288 166 19 4 85 13 146
21 62 8 125 17 140 20 27 5 112 17 364 51 58 7 155 21 215 29 180 25 412 55
540 70 66 7 127 16 135 19 8 3 65 10 125 16 61 5 121 12 135 15 14 3 90 12
170 21 80 9 195 22 255 29 122 15 446 49 660 71 244 24 603 53 800 64 105 6
242 15 305 20 134 10 304 7 775 -14z m325 -2260 c19 -3 161 -7 315 -11 154 -3
330 -10 390 -15 61 -5 202 -15 315 -21 113 -6 223 -13 245 -15 22 -2 126 -11
230 -19 426 -35 754 -70 1190 -129 173 -23 328 -45 355 -51 14 -3 72 -12 130
-20 58 -8 143 -21 190 -30 47 -8 128 -21 180 -30 52 -8 102 -17 111 -20 9 -3
56 -13 105 -21 49 -9 121 -21 159 -29 39 -7 110 -20 160 -30 121 -22 194 -42
214 -57 9 -7 56 -47 106 -88 49 -41 98 -82 110 -92 40 -33 301 -250 325 -271
14 -12 61 -51 105 -87 44 -35 82 -67 85 -70 3 -3 30 -25 60 -50 30 -25 66 -55
80 -67 14 -12 88 -74 165 -138 77 -64 150 -125 163 -136 16 -14 22 -30 23 -61
5 -232 2 -1471 -3 -1474 -7 -4 -126 86 -243 184 -22 18 -44 36 -50 40 -16 12
-169 136 -175 142 -4 4 -126 102 -220 177 -66 53 -468 376 -805 648 -62 50
-132 106 -156 126 l-44 37 -145 12 c-80 6 -161 15 -180 20 -19 4 -84 11 -145
15 -60 4 -123 9 -140 12 -16 2 -109 11 -205 18 -96 8 -191 17 -210 19 -19 3
-84 8 -145 11 -60 4 -126 9 -145 11 -37 6 -101 10 -345 24 -192 11 -323 20
-355 24 -14 2 -117 7 -230 10 -113 4 -232 10 -265 12 -130 11 -168 12 -390 18
-126 3 -324 9 -440 13 -267 10 -1707 10 -1965 0 -107 -4 -287 -10 -400 -13
-113 -3 -225 -7 -250 -8 -25 -2 -101 -6 -170 -10 -69 -4 -206 -12 -305 -17
-99 -6 -202 -12 -230 -15 -27 -3 -111 -9 -185 -13 -166 -11 -238 -17 -455 -37
-93 -8 -240 -22 -325 -29 -85 -8 -191 -19 -235 -24 -44 -5 -109 -12 -144 -16
-35 -3 -67 -7 -70 -9 -3 -2 -60 -9 -126 -16 -66 -6 -133 -14 -150 -16 -16 -3
-62 -9 -102 -14 -52 -7 -84 -18 -115 -39 -125 -83 -314 -206 -322 -210 -5 -2
-16 -10 -25 -17 -9 -8 -74 -52 -146 -98 -71 -46 -150 -98 -175 -116 -25 -17
-142 -95 -260 -172 -118 -78 -339 -224 -491 -325 -152 -100 -284 -186 -293
-189 -15 -6 -16 54 -14 707 l3 713 152 115 c83 64 195 150 250 192 54 41 139
106 188 144 50 37 115 88 145 112 71 56 57 45 198 153 68 52 136 104 151 115
41 29 145 109 151 116 3 3 32 25 65 50 33 24 66 50 74 57 27 26 36 28 376 87
77 13 164 27 194 30 30 4 63 9 75 11 12 3 55 9 96 14 41 6 86 12 100 15 14 3
68 10 120 16 52 5 118 14 145 19 28 5 82 12 120 15 39 3 97 10 130 16 54 9
153 19 480 49 61 5 148 14 195 20 47 5 162 15 255 21 94 5 181 12 194 14 13 2
119 9 235 15 116 6 263 15 326 20 63 5 311 15 550 20 239 6 444 12 455 14 28
5 1012 -3 1055 -8z m-44 -2811 c27 -2 220 -7 428 -10 209 -4 388 -8 399 -11
11 -2 178 -8 371 -14 193 -5 425 -14 516 -20 91 -6 289 -15 440 -21 151 -6
295 -12 320 -14 25 -2 162 -8 305 -14 143 -6 305 -16 360 -21 55 -5 179 -12
275 -16 96 -3 183 -8 193 -10 9 -1 54 -6 100 -10 92 -7 20 27 747 -351 69 -36
195 -101 280 -145 85 -44 196 -102 245 -128 50 -26 142 -74 205 -107 63 -33
161 -84 218 -113 l102 -54 0 -758 c0 -582 -3 -758 -12 -758 -10 0 -97 53 -180
111 -15 11 -29 19 -32 19 -2 0 -46 27 -97 60 -52 33 -128 80 -169 105 -41 25
-118 72 -170 105 -52 32 -115 71 -140 86 -25 15 -67 42 -95 59 -27 18 -113 71
-190 119 -77 47 -144 89 -150 94 -5 4 -53 34 -105 65 -83 50 -123 76 -251 156
-23 15 -104 64 -154 94 -11 7 -22 15 -25 18 -3 3 -30 20 -60 37 -66 39 -87 52
-120 73 -27 18 -51 22 -250 44 -74 9 -146 17 -160 19 -67 11 -574 62 -805 80
-99 8 -216 20 -260 25 -44 6 -138 13 -210 17 -71 3 -143 8 -160 11 -43 7 -227
20 -400 28 -82 4 -170 9 -195 11 -25 3 -133 9 -240 14 -107 5 -249 12 -315 15
-604 31 -2090 31 -2590 0 -49 -3 -175 -10 -280 -16 -296 -15 -699 -44 -710
-51 -5 -3 -66 -9 -135 -12 -69 -4 -145 -11 -170 -16 -25 -5 -115 -17 -200 -26
-223 -23 -353 -39 -370 -46 -8 -4 -49 -9 -90 -13 -41 -4 -102 -13 -135 -20
-33 -7 -90 -17 -128 -20 -37 -4 -70 -11 -73 -16 -3 -5 -22 -9 -42 -9 -43 0
-82 -20 -252 -127 -69 -43 -132 -82 -140 -86 -8 -4 -53 -32 -100 -61 -47 -30
-119 -76 -160 -101 -181 -112 -263 -163 -332 -204 -40 -24 -75 -47 -78 -51 -3
-3 -43 -28 -88 -55 -46 -28 -94 -57 -107 -65 -13 -8 -63 -39 -111 -68 -49 -29
-138 -84 -199 -123 -97 -61 -178 -111 -233 -144 -9 -6 -28 -18 -42 -26 -83
-55 -288 -179 -293 -179 -4 0 -6 351 -5 781 l3 781 95 48 c52 27 203 102 336
168 132 66 249 125 260 130 10 6 37 20 59 30 22 11 252 125 512 255 320 160
492 241 535 251 276 64 719 120 1238 156 80 5 215 15 300 21 207 14 570 25
924 28 160 1 292 4 295 7 7 6 1870 -4 1947 -11z"/>
<path d="M16928 20105 c-3 -3 -135 -11 -363 -21 -77 -3 -153 -7 -170 -9 -16
-2 -86 -8 -155 -14 -126 -10 -204 -17 -295 -26 -27 -2 -99 -9 -160 -14 -60 -6
-126 -13 -145 -16 -19 -2 -101 -10 -182 -17 -88 -7 -144 -16 -141 -22 3 -5 1
-6 -4 -3 -10 6 -280 -18 -313 -28 -8 -2 -42 -7 -75 -10 -122 -12 -421 -49
-480 -59 -16 -3 -79 -10 -140 -16 -60 -6 -121 -13 -135 -16 -28 -4 -197 -26
-370 -47 -63 -8 -126 -17 -140 -21 -23 -6 -99 -16 -365 -47 -49 -6 -97 -13
-105 -16 -8 -4 -78 -14 -156 -23 -160 -18 -142 -10 -429 -195 -85 -55 -191
-122 -234 -150 -44 -27 -126 -79 -182 -115 -56 -36 -114 -72 -128 -80 -14 -9
-59 -37 -99 -63 -40 -26 -76 -47 -81 -47 -5 0 -11 -4 -13 -8 -2 -4 -20 -18
-40 -31 l-38 -23 0 -444 0 -444 68 45 c37 25 74 50 82 55 441 295 1095 728
1125 745 91 53 311 108 600 151 55 8 111 17 125 20 14 2 63 9 110 14 47 6 96
12 110 15 33 7 229 31 410 50 80 9 159 18 175 20 17 3 86 9 155 15 69 6 136
13 148 16 13 2 101 11 195 19 95 8 215 19 267 24 52 6 122 12 155 14 234 17
499 38 600 47 66 6 185 15 265 20 309 19 500 31 620 40 256 17 1147 -1 1405
-30 50 -5 153 -14 230 -20 222 -16 482 -38 580 -50 50 -5 137 -15 195 -21 326
-33 639 -68 670 -74 14 -3 86 -12 160 -20 74 -8 144 -16 155 -19 11 -2 54 -7
95 -10 41 -4 95 -11 120 -16 25 -6 88 -14 140 -20 52 -5 106 -12 120 -14 14
-3 81 -12 150 -21 69 -8 172 -22 230 -30 58 -9 173 -25 255 -36 162 -22 296
-42 417 -61 89 -15 3 43 853 -574 117 -85 333 -241 364 -262 13 -9 36 -27 51
-39 15 -13 32 -23 36 -23 5 0 9 172 8 382 l-1 383 -56 40 c-31 22 -100 67
-152 100 -53 33 -122 77 -153 97 -31 20 -79 51 -107 68 -27 17 -97 62 -155
100 -58 38 -132 86 -165 106 -33 19 -112 69 -175 110 -139 90 -161 102 -209
109 -20 4 -45 11 -56 16 -11 5 -54 16 -95 25 -159 34 -185 41 -200 46 -8 4
-40 11 -70 18 -30 6 -98 20 -150 31 -52 11 -130 25 -172 31 -43 7 -78 16 -78
20 0 4 -15 8 -32 9 -18 0 -67 7 -108 15 -70 13 -132 24 -350 60 -47 7 -148 22
-225 33 -77 11 -149 22 -160 24 -18 5 -160 20 -195 22 -8 0 -19 3 -25 6 -5 3
-23 6 -40 7 -16 1 -91 9 -165 18 -74 8 -184 19 -245 24 -60 5 -128 12 -150 15
-22 3 -101 10 -175 15 -74 5 -173 14 -220 20 -47 5 -173 15 -280 20 -219 12
-323 19 -360 24 -14 2 -122 7 -240 11 -210 6 -309 11 -400 19 -24 3 -146 7
-270 11 -124 3 -250 9 -280 11 -66 6 -387 14 -392 9z"/>
<path d="M16355 17819 c-121 -4 -260 -9 -310 -12 -49 -3 -202 -10 -340 -16
-137 -7 -272 -16 -300 -21 -27 -5 -129 -14 -225 -19 -96 -5 -193 -12 -215 -15
-22 -3 -105 -11 -185 -17 -80 -6 -156 -12 -170 -14 -14 -2 -90 -11 -170 -19
-347 -38 -407 -45 -440 -51 -32 -6 -82 -12 -375 -46 -49 -6 -97 -13 -105 -16
-8 -4 -71 -15 -140 -24 -130 -19 -263 -40 -364 -59 -52 -10 -87 -26 -136 -67
-8 -7 -98 -76 -200 -154 -102 -77 -198 -152 -215 -164 -16 -13 -64 -50 -105
-82 -41 -31 -79 -61 -85 -66 -19 -15 -200 -153 -295 -225 -52 -39 -99 -75
-105 -80 -5 -4 -48 -37 -95 -72 -46 -36 -92 -72 -102 -81 -17 -15 -18 -45 -16
-481 l3 -466 191 127 c413 273 539 356 549 360 5 2 12 7 15 10 3 4 48 35 100
69 52 34 102 66 110 72 8 6 119 79 246 163 127 84 240 158 250 165 31 20 43
22 354 57 205 23 304 35 380 45 80 11 293 31 580 54 96 8 182 17 190 20 8 2
112 10 230 16 118 6 229 13 245 15 17 3 116 9 220 15 105 5 226 12 270 14 98
6 548 24 870 35 309 10 1563 10 1900 0 338 -11 836 -29 950 -35 50 -3 173 -9
275 -14 427 -22 731 -40 815 -50 50 -5 137 -12 195 -15 58 -3 143 -10 190 -15
47 -6 173 -17 280 -26 107 -9 254 -22 325 -30 460 -47 428 -40 500 -101 22
-19 92 -75 156 -126 217 -173 314 -251 319 -257 4 -5 112 -91 215 -172 6 -4
42 -34 81 -65 38 -32 87 -71 109 -88 21 -16 52 -41 68 -55 151 -124 383 -308
386 -305 5 6 5 984 0 988 -2 2 -42 36 -89 76 -47 39 -89 75 -95 79 -5 4 -84
70 -175 146 -91 76 -174 145 -185 154 -97 80 -249 207 -438 366 -77 64 -149
118 -160 121 -12 3 -80 16 -152 30 -71 13 -152 29 -180 35 -27 5 -113 21 -190
34 -77 14 -156 27 -175 31 -172 30 -278 47 -435 68 -16 2 -37 7 -45 10 -8 3
-53 11 -100 16 -234 28 -339 42 -385 50 -27 6 -86 13 -130 16 -44 3 -100 11
-125 16 -25 5 -97 14 -160 18 -63 5 -125 12 -136 14 -12 3 -93 11 -180 17 -88
6 -172 13 -189 16 -16 3 -84 9 -150 14 -66 5 -151 12 -190 15 -129 10 -339 23
-480 30 -77 4 -178 9 -225 12 -361 20 -1624 28 -2105 12z"/>
<path d="M15899 15026 c-2 -2 -206 -6 -453 -10 -247 -4 -453 -9 -458 -12 -5
-3 -63 -8 -131 -11 -284 -12 -438 -22 -732 -48 -347 -31 -404 -37 -418 -46 -1
-1 -58 -10 -127 -20 -156 -22 -280 -44 -345 -59 -49 -12 -1017 -487 -1023
-502 -2 -4 -8 -8 -13 -8 -12 0 -590 -287 -602 -299 -4 -4 -6 -244 -5 -534 l3
-526 120 74 c66 41 140 88 165 103 25 16 106 66 180 112 74 45 151 92 170 105
43 28 220 137 315 195 39 23 108 66 155 95 47 29 127 80 179 112 52 32 127 78
167 103 383 238 325 212 584 254 52 9 106 18 120 21 14 2 36 7 50 9 14 3 50 8
80 11 30 3 78 10 105 15 62 12 333 46 440 56 44 4 82 8 85 9 3 1 37 5 75 9
363 37 408 40 805 65 91 6 230 15 310 21 342 23 942 32 1730 26 443 -3 828 -8
855 -11 28 -2 106 -7 175 -10 363 -15 567 -25 675 -35 66 -5 203 -14 305 -20
102 -7 199 -13 215 -15 17 -2 98 -9 180 -15 83 -6 166 -13 185 -15 19 -2 73
-7 120 -10 47 -3 130 -11 185 -16 55 -6 163 -17 240 -24 177 -18 408 -42 460
-49 22 -3 103 -12 180 -21 218 -24 284 -34 298 -45 6 -6 71 -47 142 -91 169
-104 253 -156 323 -200 31 -20 118 -74 192 -119 74 -46 158 -97 185 -115 71
-45 139 -87 225 -140 41 -26 125 -77 185 -115 139 -87 238 -148 340 -210 l80
-48 3 506 c1 278 -1 509 -5 513 -5 4 -69 39 -143 77 -130 67 -224 116 -450
234 -58 31 -168 88 -245 128 -77 40 -196 102 -265 138 -69 35 -186 96 -260
134 -74 39 -140 74 -147 80 -23 19 -152 32 -478 48 -312 15 -348 18 -369 26
-15 6 -17 4 -11 -7 7 -11 6 -12 -6 -3 -9 8 -101 14 -264 19 -137 3 -272 10
-300 15 -27 5 -158 12 -290 15 -132 3 -267 8 -300 10 -33 3 -132 7 -219 10
-88 4 -162 8 -165 9 -3 2 -154 7 -336 11 -412 10 -448 11 -565 18 -210 14
-2448 34 -2461 23z"/>
<path d="M9730 20153 c-17 -7 -119 -54 -268 -124 -57 -27 -105 -49 -108 -49
-2 0 -36 -15 -76 -34 -40 -19 -117 -55 -172 -80 -54 -25 -109 -49 -122 -52
-13 -3 -24 -10 -24 -15 0 -5 -5 -9 -11 -9 -13 0 -54 -18 -314 -140 -33 -16
-82 -38 -110 -50 -27 -12 -77 -34 -110 -50 -33 -15 -96 -44 -140 -65 -44 -20
-125 -57 -180 -82 -55 -25 -142 -65 -193 -89 -52 -24 -97 -44 -101 -44 -16 0
-49 -38 -144 -165 -53 -71 -100 -134 -105 -140 -29 -37 -292 -414 -292 -419 0
-2 -28 -46 -63 -97 -35 -52 -97 -150 -137 -219 -76 -128 -230 -423 -230 -440
0 -5 37 4 83 22 45 17 118 44 162 60 44 16 94 35 112 43 17 8 38 15 46 15 9 0
18 4 21 9 3 5 18 12 33 15 28 7 111 37 170 62 17 8 35 14 39 14 9 0 91 31 151
56 17 8 38 14 46 14 9 0 18 4 21 9 3 4 27 14 53 22 27 7 59 19 73 26 14 7 31
13 38 13 7 0 20 5 30 10 9 6 134 53 277 105 143 53 269 99 280 104 11 5 49 19
85 32 36 12 70 26 75 30 6 4 26 12 45 17 19 6 60 20 90 32 30 12 73 28 95 35
22 8 65 23 95 35 30 12 69 26 85 32 17 5 44 16 62 24 17 8 37 14 45 14 8 0 18
4 24 8 5 5 45 21 89 36 44 16 94 34 110 41 17 7 59 23 95 35 36 12 79 28 95
35 17 7 64 25 105 40 41 14 80 31 87 37 10 8 13 141 13 649 0 352 -3 639 -7
638 -5 0 -15 -3 -23 -6z"/>
<path d="M25102 19503 l3 -646 47 -16 c26 -9 50 -19 54 -23 4 -5 14 -8 22 -8
8 0 28 -6 45 -14 18 -7 61 -24 97 -36 36 -12 79 -28 95 -35 66 -27 142 -54
168 -61 15 -3 30 -10 33 -15 3 -5 12 -9 20 -9 8 0 56 -16 107 -36 50 -20 117
-45 147 -56 115 -43 136 -51 155 -59 11 -5 38 -15 60 -22 74 -26 300 -109 320
-118 11 -5 112 -43 225 -84 113 -41 213 -80 222 -85 10 -6 23 -10 30 -10 7 0
24 -6 38 -13 14 -7 46 -19 73 -26 26 -8 50 -18 53 -22 3 -5 13 -9 22 -9 9 -1
35 -9 57 -20 22 -11 47 -20 55 -20 8 0 28 -7 44 -15 15 -8 33 -15 38 -15 6 0
24 -7 41 -15 18 -8 50 -20 72 -28 22 -8 157 -58 300 -112 319 -120 418 -155
421 -152 2 2 -43 122 -65 172 -28 63 -177 361 -212 425 -45 82 -248 419 -261
435 -5 6 -43 62 -85 125 -128 195 -91 166 -378 300 -49 23 -126 59 -170 80
-44 21 -120 57 -170 80 -49 23 -133 63 -185 87 -223 105 -262 123 -271 123 -5
0 -9 5 -9 10 0 6 -5 10 -12 10 -6 0 -44 15 -82 34 -39 19 -98 46 -131 61 -33
15 -107 50 -165 77 -58 28 -141 67 -185 88 -44 21 -123 58 -176 84 -53 25
-121 56 -150 69 -89 40 -271 126 -311 147 -20 11 -39 20 -43 20 -3 0 -4 -291
-3 -647z"/>
<path d="M9765 18650 c-22 -10 -46 -19 -53 -19 -8 -1 -28 -7 -45 -15 -18 -8
-59 -24 -92 -36 -33 -13 -74 -29 -92 -36 -17 -8 -37 -14 -45 -14 -8 0 -18 -4
-23 -8 -6 -5 -46 -21 -90 -36 -44 -16 -93 -34 -110 -41 -16 -8 -42 -17 -58
-20 -15 -4 -30 -11 -33 -16 -3 -5 -12 -9 -21 -9 -8 0 -29 -6 -46 -14 -18 -8
-68 -26 -112 -41 -44 -15 -89 -31 -100 -36 -53 -22 -105 -42 -160 -60 -33 -12
-73 -26 -90 -33 -62 -27 -141 -56 -149 -56 -4 0 -22 -6 -39 -14 -76 -33 -137
-56 -149 -56 -7 -1 -31 -9 -53 -20 -22 -11 -48 -19 -57 -20 -10 0 -18 -4 -18
-8 0 -5 -19 -13 -42 -19 -24 -6 -68 -21 -98 -33 -30 -12 -95 -36 -145 -55
-112 -41 -145 -53 -170 -64 -11 -5 -74 -28 -140 -52 -66 -23 -124 -46 -129
-50 -6 -5 -17 -9 -25 -9 -9 -1 -34 -9 -56 -20 -22 -11 -45 -19 -51 -20 -7 0
-25 -7 -40 -15 -16 -8 -36 -15 -44 -15 -8 0 -33 -9 -55 -20 -22 -11 -45 -19
-51 -20 -7 0 -25 -7 -40 -15 -16 -8 -36 -15 -44 -15 -8 0 -33 -9 -55 -20 -22
-11 -48 -19 -57 -20 -9 0 -19 -4 -22 -9 -3 -5 -28 -14 -56 -21 -46 -11 -50
-15 -56 -47 -8 -45 2 -198 15 -238 6 -16 23 -70 38 -120 14 -49 30 -97 35
-105 4 -8 19 -44 33 -78 67 -164 199 -414 314 -592 30 -47 71 -116 91 -155 92
-173 126 -235 169 -303 54 -86 261 -402 273 -417 5 -5 29 -38 54 -72 25 -35
50 -61 54 -58 5 3 41 14 82 24 40 11 98 27 128 36 30 9 87 25 125 35 39 10 95
26 125 35 30 9 80 23 110 31 30 8 62 16 70 19 139 41 161 47 265 74 44 12 91
25 105 30 14 5 63 19 110 31 47 13 94 26 105 31 11 5 38 13 60 18 22 5 74 19
115 31 41 12 98 28 125 35 28 8 84 23 125 35 41 12 98 28 125 35 28 8 75 21
105 30 30 9 80 23 110 31 170 45 179 49 291 141 56 47 211 169 259 204 19 14
67 52 107 85 39 32 84 69 100 81 29 22 246 193 273 216 8 7 28 23 45 35 l30
24 0 418 1 418 -74 78 c-41 44 -156 163 -256 265 -261 269 -612 633 -686 712
-68 73 -80 77 -145 47z"/>
<path d="M24930 18573 c-46 -49 -167 -174 -269 -279 -460 -475 -630 -650 -678
-702 l-53 -56 0 -410 c1 -308 4 -415 13 -426 12 -16 109 -96 167 -140 18 -14
61 -47 95 -75 34 -27 108 -86 165 -130 56 -44 108 -85 114 -90 6 -6 29 -24 51
-40 22 -17 46 -36 54 -43 7 -7 70 -57 140 -112 132 -103 148 -111 296 -155 50
-15 101 -30 115 -35 14 -5 68 -20 120 -35 52 -14 102 -30 110 -34 9 -5 35 -12
58 -16 23 -4 44 -10 47 -15 3 -5 24 -11 48 -15 23 -4 58 -13 77 -20 19 -8 69
-23 110 -35 74 -21 175 -52 360 -109 52 -16 129 -39 170 -51 41 -12 127 -37
190 -56 63 -19 138 -42 165 -50 28 -8 79 -23 115 -34 231 -70 298 -89 321 -94
28 -6 15 -21 191 218 107 144 154 209 280 391 65 94 122 175 128 182 5 7 10
15 10 18 0 3 15 27 33 53 135 196 416 695 417 740 0 6 4 12 9 12 5 0 12 12 16
27 6 24 29 81 55 138 17 35 60 175 60 193 0 10 5 23 10 28 14 14 26 156 14
152 -12 -3 -86 22 -98 33 -6 5 -16 9 -24 9 -8 0 -28 6 -45 14 -18 8 -50 20
-72 26 -22 7 -44 16 -50 20 -5 5 -27 11 -47 15 -21 4 -38 11 -38 15 0 4 -23
13 -50 20 -28 7 -53 16 -56 21 -3 5 -12 9 -21 9 -8 0 -29 6 -46 14 -18 8 -57
23 -87 35 -30 11 -97 36 -147 56 -51 19 -97 35 -103 35 -6 0 -18 4 -28 10 -9
5 -152 60 -317 120 -281 103 -334 123 -410 155 -16 7 -45 16 -62 20 -18 3 -35
11 -38 16 -4 5 -14 9 -23 9 -9 1 -35 9 -57 20 -22 11 -44 19 -50 20 -9 0 -77
25 -150 55 -16 7 -77 29 -135 50 -58 20 -118 43 -135 50 -16 7 -120 45 -230
85 -110 40 -214 79 -232 86 -17 8 -38 14 -46 14 -9 0 -18 4 -22 10 -3 5 -20
14 -38 19 -54 16 -180 62 -222 81 -22 10 -55 21 -72 25 -18 3 -35 11 -38 16
-4 5 -16 9 -29 9 -16 0 -49 -27 -106 -87z"/>
<path d="M9880 15725 c-25 -6 -52 -14 -60 -18 -8 -3 -33 -11 -55 -16 -22 -6
-74 -20 -115 -31 -41 -12 -97 -28 -125 -36 -27 -7 -84 -23 -125 -35 -41 -11
-97 -27 -125 -34 -27 -7 -81 -23 -120 -35 -38 -12 -90 -26 -115 -31 -25 -6
-54 -14 -65 -19 -11 -5 -36 -12 -55 -16 -19 -3 -39 -10 -45 -14 -5 -3 -37 -12
-70 -19 -33 -7 -69 -16 -80 -21 -11 -4 -38 -13 -60 -18 -22 -5 -78 -21 -125
-35 -47 -14 -101 -28 -120 -32 -19 -4 -41 -11 -50 -16 -8 -4 -35 -13 -60 -19
-25 -6 -76 -20 -115 -30 -38 -10 -90 -24 -115 -31 -25 -6 -53 -15 -62 -20 -10
-5 -27 -9 -38 -9 -11 0 -20 -3 -20 -7 0 -9 127 -176 220 -288 41 -51 89 -109
105 -130 17 -21 35 -43 40 -49 16 -17 66 -78 110 -131 22 -27 78 -92 124 -145
46 -52 111 -126 145 -165 33 -38 86 -97 116 -130 30 -33 89 -99 130 -145 41
-46 109 -120 150 -165 89 -93 200 -213 321 -343 l87 -93 48 6 c27 3 76 7 109
9 33 2 107 7 165 11 l105 8 -1 1148 c0 632 -3 1151 -5 1152 -2 2 -24 -2 -49
-8z"/>
<path d="M24920 14574 c0 -635 3 -1154 8 -1154 4 -1 23 -3 42 -6 110 -15 436
-30 450 -21 8 5 35 33 59 61 45 52 92 105 190 211 31 33 85 94 121 135 36 41
90 102 120 135 75 83 211 239 365 420 103 121 123 144 165 195 25 30 70 84
100 120 76 91 123 148 220 270 47 58 93 114 103 125 10 11 25 32 32 46 14 26
14 27 -33 37 -47 11 -164 44 -192 54 -47 18 -150 48 -183 54 -20 3 -39 10 -42
14 -3 5 -24 11 -48 15 -23 4 -46 11 -52 15 -5 4 -30 13 -55 18 -88 21 -175 47
-180 53 -3 4 -21 10 -40 14 -19 3 -53 12 -75 20 -22 7 -74 23 -115 35 -41 12
-84 25 -95 30 -11 4 -65 20 -120 34 -55 15 -109 31 -120 36 -33 14 -157 50
-174 50 -9 0 -28 6 -42 14 -14 7 -43 16 -65 21 -21 4 -43 10 -49 13 -5 4 -37
14 -70 24 -60 16 -131 37 -192 57 l-33 10 0 -1155z"/>
<path d="M9751 13211 l-53 -6 330 -335 331 -335 1 134 0 133 -52 67 c-28 36
-77 97 -107 136 -31 38 -59 74 -63 80 -4 5 -30 38 -58 73 l-51 62 -112 -2
c-62 -1 -136 -4 -166 -7z"/>
<path d="M24815 13193 c-14 -15 -75 -91 -135 -168 -60 -77 -113 -144 -118
-150 -4 -5 -20 -26 -35 -46 l-27 -36 0 -189 1 -189 66 70 c36 39 120 126 187
195 118 122 339 357 426 452 29 33 38 49 29 52 -12 4 -109 11 -306 22 -23 1
-46 5 -52 9 -6 3 -22 -7 -36 -22z"/>
</g>
</svg>
